# xmcd
#
# Track frame offsets:
#	150
#	19012
#	36262
#
# Disc length: 725 seconds
#
# Revision: 0
# Processed by: cddbd v1.5.2PL0 Copyright (c) Steve Scherf et al.
# Submitted via: audiograbber 1.83.01
#
DISCID=1b02d303
DTITLE=Kaija Koo - Kaija Koo [CDS-Promo)
DYEAR=2010
DGENRE=Pop
TTITLE0=Vapaa
TTITLE1=Mul On Yö
TTITLE2=Onni Vaihteita Vaihtelee
EXTD=TR.
EXTT0=
EXTT1=
EXTT2=
PLAYORDER=
